# xmcd
#
# Track frame offsets:
#  150
#  16904
#  31522
#  51191
#  70471
#  89376
#  102416
#  119757
#  139131
#  156760
#
# Disc length: 2363 seconds
#
# Revision: 0
# Processed by: cddbd v1.5.1PL2 Copyright (c) Steve Scherf et al.
# Submitted via: Collectorz.com_Music_Collector 6.9
#
DISCID=8409390a
DTITLE=Sugarland - Sugar In The Raw
DYEAR=2003
DGENRE=Alternative Country
TTITLE0=Fly Away
TTITLE1=Tennessee
TTITLE2=Baby Girl
TTITLE3=Just Might (Make Me Believe)
TTITLE4=Speed Of Life
TTITLE5=(Down In) Missippippi (Up To No Good)
TTITLE6=Something More
TTITLE7=Small Town Jericho
TTITLE8=Hello
TTITLE9=Sugarland
EXTD=
EXTT0=
EXTT1=
EXTT2=
EXTT3=
EXTT4=
EXTT5=
EXTT6=
EXTT7=
EXTT8=
EXTT9=
PLAYORDER=
